# xmcd
#
# Track frame offsets: 
#        150
#        12255
#        30272
#        45090
#
# Disc length: 810 seconds
#
# Revision: 3
# Processed by: cddbd v1.5.2PL0 Copyright (c) Steve Scherf et al.
# Submitted via: ExactAudioCopyFreeDBPlugin 1.0
#
DISCID=1a032804
DTITLE=Dominique A - Auguri
DYEAR=2001
DGENRE=Rock
TTITLE0=Hotel bratthold
TTITLE1=J'ai tué l'amour
TTITLE2=Tourisme
TTITLE3=Oublie
EXTD=YEAR: 2001 ID3G: 17
EXTT0=
EXTT1=
EXTT2=
EXTT3=
PLAYORDER=
